<svg width="48" height="39" viewBox="0 0 48 39" fill="none" xmlns="http://www.w3.org/2000/svg">
<circle cx="12" cy="26" r="12" fill="#C3A366" fill-opacity="0.66"/>
<path d="M28.4183 1C32.0611 1 35.6221 2.08022 38.651 4.10405C41.6799 6.12788 44.0406 9.00443 45.4346 12.3699C46.8287 15.7354 47.1934 19.4388 46.4828 23.0116C45.7721 26.5844 44.0179 29.8662 41.4421 32.4421C38.8662 35.0179 35.5844 36.7721 32.0116 37.4828C28.4388 38.1934 24.7354 37.8287 21.3699 36.4346C18.0044 35.0406 15.1279 32.6799 13.104 29.651C11.0802 26.6221 10 23.0611 10 19.4183C10.0023 14.5342 11.9435 9.85073 15.3971 6.39711C18.8507 2.9435 23.5342 1.00227 28.4183 1Z" stroke="#4C4622" stroke-width="1.5" stroke-linecap="round" stroke-linejoin="round"/>
<path d="M28.4151 21.5573C29.5979 21.5573 30.5568 20.5984 30.5568 19.4156C30.5568 18.2328 29.5979 17.2739 28.4151 17.2739C27.2323 17.2739 26.2734 18.2328 26.2734 19.4156C26.2734 20.5984 27.2323 21.5573 28.4151 21.5573Z" stroke="#4C4622" stroke-width="1.5" stroke-linecap="round" stroke-linejoin="round"/>
<path d="M28.418 17.2733V8.65527" stroke="#4C4622" stroke-width="1.5" stroke-linecap="round" stroke-linejoin="round"/>
<path d="M30.2188 20.575L40.6701 27.257" stroke="#4C4622" stroke-width="1.5" stroke-linecap="round" stroke-linejoin="round"/>
</svg>
