<svg width="58" height="63" viewBox="0 0 58 63" fill="none" xmlns="http://www.w3.org/2000/svg">
<circle cx="20" cy="42" r="20" fill="#C3A366" fill-opacity="0.66"/>
<path d="M42.8576 15.5069C43.477 15.3645 43.9135 14.8463 43.8994 14.2503H55.1909C55.9653 14.2503 56.5988 13.6673 56.5988 12.9548C56.5988 12.2422 55.9653 11.6592 55.1909 11.6592H43.4489C43.4067 11.6592 39.7039 11.2576 39.7039 7.12508C39.7039 3.74387 43.1815 2.75926 43.8854 2.59093H55.1909C55.9653 2.59093 56.5988 2.00796 56.5988 1.2954C56.5988 0.582968 55.9653 0 55.1909 0H43.7164C43.6178 0 43.5334 0.0129953 43.4349 0.0258692C41.1682 0.453379 36.8881 2.47433 36.8881 7.12508C36.8881 10.584 38.831 12.5143 40.6895 13.473C35.5788 15.4292 19.3315 24.5105 20.0213 60.9136C20.0354 61.6262 20.6549 62.1831 21.4293 62.1831H21.4574C22.2318 62.1701 22.8512 61.5743 22.8371 60.8617C22.0628 20.948 42.576 15.5717 42.8576 15.5069Z" fill="#4C4622"/>
<path d="M43.3933 17.1262C42.7878 16.6728 41.9009 16.7634 41.4081 17.3205C40.9154 17.8776 41.0139 18.6938 41.6193 19.1471C41.7741 19.2637 57.6695 31.4672 54.8396 60.7711C54.7692 61.4836 55.3323 62.1183 56.1067 62.1832C56.1489 62.1832 56.1912 62.1832 56.2334 62.1832C56.9656 62.1832 57.5709 61.6779 57.6414 61.0042C60.6261 30.2235 44.0972 17.6444 43.3933 17.1262Z" fill="#4C4622"/>
</svg>
