<svg width="72" height="62" viewBox="0 0 72 62" fill="none" xmlns="http://www.w3.org/2000/svg">
<circle cx="20" cy="42" r="20" fill="#C3A366" fill-opacity="0.66"/>
<path d="M12.5161 53.4217L37.3863 29.3651L34.6323 26.7012C33.4076 25.5166 32.7334 23.9397 32.7338 22.261C32.7344 20.5817 33.4105 19.0032 34.6374 17.8166L36.4668 16.047C36.4674 16.0465 36.4678 16.0459 36.4681 16.0454C36.4687 16.0449 36.4722 16.0447 36.4726 16.0442L47.4897 5.39011V5.30535H47.4843L51.1508 1.80089C51.1518 1.79968 51.1531 1.8199 51.1543 1.81881C51.155 1.81821 51.1553 1.82802 51.156 1.82741C51.1576 1.82572 51.1601 1.82996 51.1617 1.82838C53.6958 -0.6119 57.8082 -0.609357 60.3359 1.8354L63.09 4.50116C65.1201 2.54647 68.4658 2.5455 70.4876 4.50128C72.5124 6.45973 72.4806 9.65055 70.5333 11.6135V11.6137L19.9138 60.5252C18.8979 61.5084 17.5364 61.9999 16.203 61.9999C14.874 61.9999 13.532 61.5111 12.5214 60.5334C10.4964 58.5749 10.4869 55.3845 12.5161 53.4217ZM58.5 3.61403C57.3048 2.45807 55.52 2.21758 54.0716 2.88287L56.6636 5.38999C57.1708 5.88054 57.1708 6.67564 56.6636 7.16607C56.4101 7.41117 56.0779 7.53383 55.7457 7.53383C55.4136 7.53383 55.0811 7.41117 54.8279 7.16595L52.0739 4.50201L50.2377 6.27809L52.9917 8.94191C53.4989 9.43246 53.4989 10.2276 52.9917 10.718C52.7382 10.9631 52.406 11.0858 52.0739 11.0858C51.7417 11.0858 51.4092 10.9631 51.156 10.7179L48.402 8.05393L46.5662 9.83002L49.3198 12.4938C49.827 12.9844 49.827 13.7794 49.3198 14.2699C49.0666 14.515 48.7341 14.6377 48.402 14.6377C48.0698 14.6377 47.7373 14.515 47.4841 14.2699L44.7301 11.606L42.8939 13.3821L45.648 16.0458C46.1551 16.5363 46.1551 17.3313 45.648 17.8218C45.3947 18.0669 45.0622 18.1896 44.7301 18.1896C44.3978 18.1896 44.0655 18.0669 43.8122 17.8218L41.0582 15.1579L39.2221 16.934L41.9757 19.5977C42.4828 20.0882 42.4828 20.8833 41.9757 21.3738C41.7222 21.6189 41.3899 21.7415 41.0578 21.7415C40.7257 21.7415 40.3932 21.6189 40.1399 21.3736L37.3859 18.7098L36.4731 19.593C35.7365 20.3055 35.3305 21.2534 35.3302 22.2621C35.3298 23.2697 35.734 24.2155 36.4681 24.9254L39.2221 27.5895L61.2536 6.27797L58.5 3.61403ZM14.3436 58.7578C15.356 59.7367 17.0066 59.7334 18.024 58.7496L68.5894 9.83789C69.6062 8.854 69.61 7.25714 68.5977 6.27797C67.585 5.29905 65.9343 5.30232 64.9173 6.28608L64.0076 7.16595L40.1399 30.253C40.1396 30.2533 40.1393 30.2534 40.1393 30.2534L14.3519 55.1973C13.3351 56.1813 13.3313 57.7783 14.3436 58.7578Z" fill="#4C4622"/>
</svg>
