<svg width="54" height="63" viewBox="0 0 54 63" fill="none" xmlns="http://www.w3.org/2000/svg">
<circle cx="20" cy="42.1055" r="20" fill="#C3A366" fill-opacity="0.67"/>
<path d="M49.9904 25.0142C52.7041 18.9138 55.2115 10.1107 53.3662 5.36715C50.7501 -1.34107 45.1491 -0.233892 40.2102 0.732145C38.4518 1.07946 36.6282 1.43767 35 1.43767C33.3718 1.43767 31.5482 1.07946 29.7897 0.732145C24.8508 -0.24478 19.2606 -1.34107 16.6338 5.36715C14.7885 10.0998 17.2959 18.9138 20.0096 25.0142C20.0856 25.1879 20.1181 25.3724 20.0964 25.5569C19.8359 28.1078 19.7056 30.6804 19.7165 33.2421C19.7165 40.2434 20.7802 52.1076 24.7423 52.1076C28.1398 52.1076 28.6065 47.6029 29.1059 42.8268C29.8114 35.9558 30.658 31.0929 35 31.0929C39.2768 31.0929 40.1017 35.9124 40.8073 42.7074C41.3066 47.5378 41.7733 52.0968 45.2577 52.0968C49.2305 52.0968 50.2942 40.2325 50.2942 33.2312C50.2942 30.6695 50.1749 28.1077 49.9144 25.5461C49.8818 25.3724 49.9144 25.1771 49.9904 25.0142ZM45.2468 49.9367C43.7272 49.9367 43.3146 45.9748 42.9564 42.4904C42.3268 36.4444 41.5562 28.922 34.9891 28.922C28.3569 28.922 27.5645 36.5095 26.9348 42.599C26.5766 46.0399 26.175 49.9368 24.7856 49.9368C23.7436 49.5135 21.8765 43.5868 21.8765 33.2314C21.8656 30.7348 21.9959 28.2491 22.2456 25.7742C22.2998 25.2097 22.213 24.6453 21.9851 24.1351C18.7396 16.8297 17.3719 9.43767 18.6528 6.15958C19.8467 3.10943 21.6595 2.17586 24.2321 2.17586C25.6975 2.17586 27.3908 2.47982 29.3664 2.87059C31.2334 3.23969 33.1655 3.61957 35 3.61957C36.8345 3.61957 38.7665 3.23969 40.6336 2.87059C46.0609 1.79598 49.4801 1.38353 51.3472 6.15958C52.6281 9.43767 51.2495 16.8297 48.0148 24.135C47.7868 24.656 47.6891 25.2205 47.7542 25.7958C48.0039 28.2707 48.1233 30.7564 48.1233 33.253C48.1124 43.5867 46.2455 49.5242 45.2468 49.9367Z" fill="#4C4622"/>
</svg>
