<svg width="51" height="31" viewBox="0 0 51 31" fill="none" xmlns="http://www.w3.org/2000/svg">
<circle cx="12" cy="19" r="12" fill="#C3A366" fill-opacity="0.66"/>
<path d="M45.9859 4.48477L30.8093 15.0969L15.6327 4.48477M13.842 0.971924C13.3286 0.971924 12.8363 1.16569 12.4732 1.51061C12.1102 1.85552 11.9062 2.32333 11.9062 2.81111V23.6031C11.9062 24.0909 12.1102 24.5587 12.4732 24.9036C12.8363 25.2486 13.3286 25.4423 13.842 25.4423H47.7765C48.2899 25.4423 48.7823 25.2486 49.1453 24.9036C49.5084 24.5587 49.7123 24.0909 49.7123 23.6031V2.78352C49.7123 2.29574 49.5084 1.82794 49.1453 1.48302C48.7823 1.13811 48.2899 0.944336 47.7765 0.944336H13.842V0.971924Z" stroke="#4C4622" stroke-width="1.25" stroke-linecap="round" stroke-linejoin="round"/>
</svg>
