<svg width="35" height="38" viewBox="0 0 35 38" fill="none" xmlns="http://www.w3.org/2000/svg">
<circle cx="12.7031" cy="24" r="12" fill="#C3A366" fill-opacity="0.66"/>
<path d="M26.8795 27.6329L33.1092 17.5069C33.1296 17.4741 33.1466 17.4397 33.1599 17.404C34.2357 15.6307 34.8037 13.6049 34.8037 11.5367C34.8037 5.33205 29.8101 0.28418 23.6722 0.28418C17.5342 0.28418 12.5402 5.33205 12.5402 11.5367C12.5402 13.6053 13.1091 15.6319 14.1856 17.4065C14.1981 17.4376 14.2127 17.4678 14.2301 17.4972L20.2363 27.6581C15.5739 28.3242 12.5078 30.2622 12.5078 32.6131C12.5078 35.526 17.4046 37.8072 23.6555 37.8072C29.9065 37.8072 34.8033 35.5256 34.8033 32.6131C34.8037 30.2513 31.5947 28.2701 26.8795 27.6329ZM15.3046 16.8391C14.3115 15.2413 13.7868 13.4079 13.7868 11.5367C13.7868 6.02677 18.2211 1.54426 23.6722 1.54426C29.1228 1.54426 33.5572 6.02677 33.5572 11.5367C33.5572 13.4087 33.0324 15.2421 32.0397 16.8391C32.0189 16.8727 32.0019 16.9075 31.9882 16.9437L25.4065 27.6404C25.3076 27.7938 25.2881 27.8286 25.1672 28.0294L23.5051 30.731L15.3603 16.9525C15.3457 16.9134 15.3271 16.8752 15.3046 16.8391ZM23.656 36.5471C17.8209 36.5471 13.7548 34.4734 13.7548 32.6131C13.7548 30.9246 16.8171 29.3336 20.936 28.8409L22.9596 32.2645C23.0713 32.4531 23.2716 32.5694 23.4889 32.5711C23.4906 32.5711 23.4927 32.5711 23.4943 32.5711C23.7096 32.5711 23.9098 32.4586 24.0237 32.2737L26.1511 28.8161C30.3357 29.2743 33.5567 30.9057 33.5567 32.6131C33.5572 34.4738 29.491 36.5471 23.656 36.5471Z" fill="#4C4622"/>
<path d="M27.7004 11.5346C27.7004 9.27863 25.8847 7.44312 23.653 7.44312C21.4212 7.44312 19.6055 9.27863 19.6055 11.5346C19.6055 13.7905 21.4212 15.6261 23.653 15.6261C25.8847 15.6261 27.7004 13.7905 27.7004 11.5346ZM20.852 11.5346C20.852 9.97335 22.1085 8.70319 23.653 8.70319C25.1974 8.70319 26.4539 9.97335 26.4539 11.5346C26.4539 13.0958 25.1978 14.366 23.653 14.366C22.1081 14.366 20.852 13.0958 20.852 11.5346Z" fill="#4C4622"/>
</svg>
