<svg width="52" height="39" viewBox="0 0 52 39" fill="none" xmlns="http://www.w3.org/2000/svg">
<circle cx="12" cy="26" r="12" fill="#C3A366" fill-opacity="0.66"/>
<path d="M50.9843 0.7288C50.4781 0.242933 49.8129 0 49.1493 0C48.4857 0 47.8205 0.242933 47.3143 0.7288L39.679 8.05574V6.66821H12V38.2169H44.8693V11.6499H43.2776L50.9843 4.25134C51.9983 3.2796 51.9983 1.70209 50.9843 0.7288ZM43.1381 36.5553H13.7295V8.32826H39.3951L25.8379 21.3392V24.9318H29.4381L43.1381 11.7807V36.5537V36.5553ZM49.761 3.07716L28.7226 23.2718H27.5691V22.026L48.5376 1.89986C48.7567 1.68963 49.0146 1.65849 49.1477 1.65849C49.2807 1.65849 49.5403 1.68963 49.7593 1.90142C49.98 2.11321 50.0141 2.36082 50.0141 2.48851C50.0141 2.61621 49.9816 2.86225 49.7593 3.0756L49.761 3.07716Z" fill="#4C4622"/>
</svg>
