<svg width="233" height="233" viewBox="0 0 233 233" fill="none" xmlns="http://www.w3.org/2000/svg">
<path d="M83.3268 153.254C82.8588 153.254 82.3949 153.246 81.9269 153.23C66.4665 152.68 54.974 143.231 50.7579 139.202C33.1041 159.526 5.29659 150.3 5.01172 150.198L6.39538 146.161C7.52265 146.544 33.2994 155.012 48.9185 134.709L52.2026 134.591C52.3247 134.725 64.6962 148.367 82.1181 148.965C93.1548 149.339 103.935 144.472 114.17 134.485L117.141 134.473C117.222 134.55 125.427 142.332 137.233 146.145C152.778 151.167 167.038 147.252 179.617 134.514L182.844 134.734C183.475 135.568 198.712 155.179 226.621 145.746L227.988 149.787C222.218 151.736 216.907 152.534 212.097 152.534C195.566 152.534 184.867 143.158 181.021 139.112C164.295 154.919 147.268 153.914 135.776 150.161C126.037 146.983 118.744 141.465 115.717 138.909C105.445 148.436 94.5629 153.254 83.3309 153.254H83.3268Z" fill="#7E8D5E" fill-opacity="0.19"/>
<path d="M116.5 232.996C52.2616 232.996 0 180.734 0 116.496C0 52.2575 52.2616 0 116.5 0C180.738 0 233 52.2616 233 116.5C233 180.738 180.738 233 116.5 233V232.996ZM116.5 4.26492C54.6138 4.26492 4.26899 54.6098 4.26899 116.496C4.26899 178.382 54.6138 228.727 116.5 228.727C178.386 228.727 228.731 178.382 228.731 116.496C228.731 54.6098 178.386 4.26899 116.5 4.26899V4.26492Z" fill="#7E8D5E" fill-opacity="0.19"/>
</svg>
