<svg width="63" height="47" viewBox="0 0 63 47" fill="none" xmlns="http://www.w3.org/2000/svg">
<circle cx="12.7031" cy="35" r="12" fill="#C3A366" fill-opacity="0.66"/>
<path d="M24.2986 40.8934C24.0935 40.8934 23.9239 40.7242 23.9239 40.5149C23.9239 40.3056 24.0862 40.1362 24.2912 40.1362H24.2985C24.5035 40.1362 24.6696 40.3056 24.6696 40.5149C24.6696 40.7242 24.5036 40.8934 24.2986 40.8934ZM24.2986 42.4079C24.0935 42.4079 23.9239 42.2385 23.9239 42.0293C23.9239 41.82 24.0862 41.6507 24.2912 41.6507H24.2985C24.5035 41.6507 24.6696 41.82 24.6696 42.0293C24.6696 42.0791 24.66 42.1283 24.6414 42.1742C24.6227 42.2202 24.5954 42.2619 24.561 42.2971C24.5265 42.3322 24.4856 42.3601 24.4406 42.3791C24.3956 42.3982 24.3473 42.4079 24.2986 42.4079ZM24.2761 43.9224H15.371C15.3223 43.9224 15.274 43.9126 15.229 43.8936C15.184 43.8746 15.1431 43.8467 15.1086 43.8116C15.0742 43.7764 15.0468 43.7347 15.0282 43.6887C15.0096 43.6428 15 43.5935 15 43.5438V41.0207C15 39.5446 15.7689 38.9627 17.0966 38.456C17.5408 38.2868 18.7213 37.8365 19.6642 37.3772C19.7081 37.3556 19.7557 37.3431 19.8044 37.3404C19.853 37.3377 19.9017 37.3448 19.9476 37.3614C19.9936 37.378 20.0358 37.4036 20.072 37.4369C20.1082 37.4703 20.1375 37.5105 20.1584 37.5555C20.1794 37.6003 20.1916 37.649 20.1942 37.6987C20.1968 37.7483 20.1898 37.798 20.1736 37.8449C20.1574 37.8918 20.1323 37.935 20.0997 37.972C20.0671 38.009 20.0277 38.0391 19.9838 38.0605C19.1127 38.4849 18.0669 38.8947 17.3568 39.1661C16.0893 39.649 15.7422 40.0476 15.7422 41.0208V43.1652H24.2762C24.3746 43.1653 24.469 43.2052 24.5385 43.2762C24.6081 43.3472 24.6472 43.4435 24.6472 43.5439C24.6472 43.6443 24.6081 43.7405 24.5385 43.8115C24.4689 43.8825 24.3745 43.9224 24.2761 43.9224Z" fill="#4C4622"/>
<path d="M33.1816 43.9196H24.2765C24.0715 43.9196 23.9054 43.7502 23.9054 43.541C23.9054 43.3317 24.0714 43.1623 24.2765 43.1623H32.8105V41.0179C32.8105 40.0447 32.4635 39.6461 31.1967 39.1632C30.4857 38.8911 29.4393 38.4814 28.5675 38.0555C28.5235 38.034 28.4841 38.0039 28.4516 37.9669C28.419 37.9299 28.3939 37.8867 28.3778 37.8398C28.3616 37.7929 28.3547 37.7431 28.3574 37.6935C28.3601 37.6438 28.3724 37.5952 28.3935 37.5504C28.4812 37.3618 28.7037 37.2812 28.8878 37.3722C29.7335 37.7856 30.759 38.187 31.4568 38.4532C32.7845 38.9599 33.5526 39.5418 33.5526 41.0179V43.541C33.5527 43.5907 33.5431 43.64 33.5244 43.6859C33.5058 43.7319 33.4785 43.7736 33.444 43.8088C33.4096 43.8439 33.3687 43.8718 33.3236 43.8908C33.2786 43.9098 33.2304 43.9196 33.1816 43.9196ZM24.299 37.9651C22.2024 37.9651 18.7333 34.5598 18.7333 30.679C18.7333 30.4697 18.8993 30.3004 19.1044 30.3004C19.1531 30.3003 19.2014 30.3101 19.2464 30.3291C19.2915 30.3482 19.3324 30.3761 19.3668 30.4112C19.4013 30.4464 19.4286 30.4882 19.4472 30.5341C19.4659 30.5801 19.4754 30.6293 19.4754 30.679C19.4754 34.0459 22.4851 37.2079 24.2991 37.2079C26.1137 37.2079 29.1226 34.046 29.1226 30.679C29.1226 30.4697 29.2886 30.3004 29.4937 30.3004C29.6988 30.3004 29.8648 30.4697 29.8648 30.679C29.8646 34.5599 26.3962 37.9651 24.299 37.9651ZM19.0819 30.2893C19.0522 30.2893 19.0217 30.2856 18.9912 30.2775C18.9169 30.2584 18.8501 30.2164 18.8001 30.157C18.7502 30.0977 18.7195 30.024 18.7123 29.9461C18.5151 27.7913 18.9767 26.0683 20.0863 24.8252C21.7205 22.9934 24.3707 22.6094 26.3057 22.6094C27.3159 22.6094 28.0144 22.7166 28.0435 22.7215C28.1236 22.7341 28.1974 22.7731 28.2538 22.8325C28.3102 22.8919 28.346 22.9684 28.3558 23.0505C28.3654 23.1328 28.3484 23.216 28.3073 23.2874C28.2662 23.3589 28.2033 23.4146 28.1283 23.4462C27.3151 23.7871 27.3891 24.5894 27.4906 25.0051C27.8695 25.0199 28.6312 25.1441 29.2109 25.8362C29.9175 26.6778 30.1284 28.0679 29.8378 29.9691C29.8263 30.0445 29.7927 30.1146 29.7415 30.1701C29.6903 30.2257 29.6239 30.2642 29.5509 30.2805C29.4779 30.2966 29.4018 30.29 29.3326 30.2615C29.2633 30.233 29.204 30.184 29.1624 30.1207L27.8427 28.1012C27.2529 28.3194 25.8368 28.7748 24.299 28.7748C22.7561 28.7748 21.3096 28.3164 20.7117 28.0989L19.3906 30.1206C19.3567 30.1725 19.3108 30.215 19.257 30.2444C19.2031 30.2739 19.143 30.2893 19.0819 30.2893ZM27.9869 27.2603C28.108 27.2603 28.2253 27.321 28.2956 27.4289L29.2117 28.8303C29.2682 27.6952 29.0776 26.8403 28.6472 26.3286C28.2326 25.8338 27.6877 25.7599 27.4 25.7599C27.3275 25.7599 27.2812 25.7651 27.2717 25.7665C27.1007 25.7857 26.9412 25.6926 26.8782 25.5329C26.6731 25.0175 26.5332 24.082 27.0217 23.3854C26.8101 23.3743 26.568 23.3661 26.3057 23.3661C24.52 23.3661 22.0872 23.7077 20.6349 25.3346C19.8732 26.1881 19.4645 27.3231 19.4152 28.7177L20.2573 27.4289C20.3046 27.3557 20.3754 27.3017 20.4576 27.276C20.5397 27.2504 20.628 27.2548 20.7073 27.2884C20.7248 27.2957 22.472 28.0175 24.299 28.0175C26.1245 28.0175 27.8261 27.2973 27.8435 27.2898C27.8889 27.2704 27.9376 27.2603 27.9869 27.2603Z" fill="#4C4622"/>
<path d="M29.4948 31.0607C29.2897 31.0607 29.1237 30.8913 29.1237 30.6821V29.9137C29.1237 29.7045 29.2897 29.5352 29.4948 29.5352C29.6999 29.5352 29.8659 29.7045 29.8659 29.9137V30.6821C29.8659 30.7319 29.8563 30.7811 29.8376 30.827C29.819 30.873 29.7917 30.9147 29.7572 30.9499C29.7227 30.985 29.6818 31.0129 29.6368 31.0319C29.5918 31.051 29.5435 31.0607 29.4948 31.0607ZM19.1055 31.0607C18.9003 31.0607 18.7344 30.8913 18.7344 30.6821V29.9137C18.7344 29.864 18.7439 29.8147 18.7626 29.7688C18.7812 29.7229 18.8086 29.6811 18.843 29.6459C18.8775 29.6108 18.9184 29.5829 18.9634 29.5639C19.0085 29.5449 19.0567 29.5351 19.1055 29.5352C19.1542 29.5351 19.2024 29.5449 19.2475 29.5639C19.2925 29.5829 19.3334 29.6108 19.3679 29.646C19.4023 29.6811 19.4296 29.7229 19.4483 29.7688C19.4669 29.8148 19.4765 29.864 19.4765 29.9137V30.6821C19.4765 30.7319 19.4669 30.7811 19.4483 30.827C19.4296 30.873 19.4023 30.9147 19.3679 30.9499C19.3334 30.985 19.2925 31.0129 19.2475 31.0319C19.2024 31.051 19.1542 31.0607 19.1055 31.0607ZM22.8051 39.3793C22.7067 39.3789 22.6125 39.3391 22.5427 39.2684L20.3164 36.9967C20.2494 36.9252 20.2124 36.8297 20.2135 36.7307C20.2145 36.6317 20.2536 36.5371 20.3222 36.4671C20.3908 36.3971 20.4835 36.3573 20.5805 36.3562C20.6775 36.3552 20.7711 36.3929 20.8412 36.4613L22.879 38.5407L24.1356 37.9048C24.1794 37.8813 24.2272 37.867 24.2765 37.8626C24.3257 37.8583 24.3753 37.864 24.4223 37.8795C24.4694 37.895 24.5129 37.92 24.5503 37.9529C24.5877 37.9858 24.6184 38.026 24.6403 38.0712C24.6623 38.1164 24.6752 38.1655 24.6783 38.2159C24.6814 38.2662 24.6746 38.3167 24.6582 38.3643C24.6419 38.4119 24.6165 38.4556 24.5833 38.493C24.5502 38.5305 24.51 38.5607 24.4653 38.5821L22.9702 39.3393C22.919 39.3655 22.8624 39.3792 22.8051 39.3793Z" fill="#4C4622"/>
<path d="M25.7715 39.3785C25.7157 39.3785 25.6592 39.3652 25.607 39.3386L24.1119 38.5813C24.0263 38.5353 23.9618 38.4569 23.932 38.363C23.9023 38.269 23.9097 38.1669 23.9527 38.0785C23.9958 37.9901 24.071 37.9223 24.1623 37.8897C24.2537 37.8571 24.3539 37.8623 24.4416 37.9041L25.6975 38.54L27.7354 36.4606C27.8055 36.3922 27.899 36.3544 27.996 36.3555C28.093 36.3566 28.1858 36.3964 28.2544 36.4664C28.323 36.5363 28.362 36.631 28.3631 36.73C28.3641 36.8289 28.3272 36.9244 28.2601 36.9959L26.0338 39.2677C25.9642 39.3386 25.8698 39.3785 25.7715 39.3785ZM53.2179 43.9219H44.3129C44.1077 43.9219 43.9418 43.7526 43.9418 43.5434V41.0202C43.9418 39.5442 44.7107 38.963 46.0383 38.4556C46.7979 38.1657 47.7762 37.7805 48.6053 37.3768C48.7907 37.2858 49.0118 37.3657 49.1002 37.555C49.1213 37.5999 49.1334 37.6486 49.136 37.6982C49.1386 37.7479 49.1316 37.7976 49.1154 37.8445C49.0992 37.8914 49.0741 37.9346 49.0415 37.9716C49.0089 38.0086 48.9695 38.0386 48.9255 38.0601C48.0704 38.4763 47.0725 38.8699 46.2986 39.1657C45.0311 39.6493 44.6839 40.0471 44.6839 41.0203V43.1648H53.218C53.2667 43.1648 53.315 43.1746 53.36 43.1936C53.405 43.2126 53.4459 43.2405 53.4804 43.2757C53.5149 43.3108 53.5422 43.3526 53.5608 43.3985C53.5794 43.4445 53.589 43.4937 53.589 43.5435C53.589 43.5932 53.5794 43.6424 53.5607 43.6883C53.5421 43.7343 53.5147 43.776 53.4803 43.8112C53.4458 43.8463 53.4049 43.8742 53.3599 43.8932C53.3149 43.9122 53.2666 43.922 53.2179 43.9219Z" fill="#4C4622"/>
<path d="M62.1234 43.92H53.2183C53.1696 43.92 53.1214 43.9102 53.0763 43.8912C53.0313 43.8722 52.9904 43.8443 52.9559 43.8092C52.9215 43.774 52.8942 43.7323 52.8755 43.6863C52.8569 43.6404 52.8473 43.5911 52.8473 43.5414C52.8473 43.3321 53.0132 43.1628 53.2183 43.1628H61.7524V41.0183C61.7524 40.0451 61.4052 39.6458 60.1385 39.1637C59.3637 38.8678 58.3652 38.4744 57.5093 38.0559C57.4205 38.0125 57.3522 37.9349 57.3195 37.8402C57.2867 37.7455 57.2922 37.6414 57.3346 37.5508C57.423 37.3607 57.647 37.2816 57.8295 37.3726C58.6593 37.7786 59.6384 38.1638 60.3986 38.4537C61.7255 38.9596 62.4945 39.5422 62.4945 41.0183V43.5414C62.4945 43.5912 62.4849 43.6404 62.4663 43.6863C62.4476 43.7323 62.4203 43.774 62.3858 43.8092C62.3513 43.8444 62.3104 43.8722 62.2654 43.8913C62.2204 43.9103 62.1721 43.92 62.1234 43.92ZM53.2414 37.9656C51.1449 37.9656 47.6758 34.5602 47.6758 30.6794C47.6758 30.4701 47.8418 30.3008 48.0468 30.3008C48.2519 30.3008 48.4179 30.4701 48.4179 30.6794C48.4179 34.0463 51.4269 37.2083 53.2414 37.2083C55.056 37.2083 58.065 34.0464 58.065 30.6794C58.065 30.4701 58.231 30.3008 58.4361 30.3008C58.4848 30.3008 58.5331 30.3105 58.5781 30.3296C58.6231 30.3486 58.6641 30.3765 58.6985 30.4116C58.733 30.4468 58.7603 30.4886 58.7789 30.5345C58.7976 30.5805 58.8071 30.6297 58.8071 30.6794C58.8071 34.5603 55.338 37.9656 53.2414 37.9656Z" fill="#4C4622"/>
<path d="M58.4361 31.0607C58.231 31.0607 58.065 30.8913 58.065 30.6821V29.9137C58.065 29.864 58.0746 29.8147 58.0932 29.7688C58.1118 29.7229 58.1392 29.6811 58.1736 29.6459C58.2081 29.6108 58.249 29.5829 58.2941 29.5639C58.3391 29.5449 58.3874 29.5351 58.4361 29.5352C58.4848 29.5351 58.5331 29.5449 58.5781 29.5639C58.6231 29.5829 58.664 29.6108 58.6985 29.646C58.7329 29.6811 58.7603 29.7229 58.7789 29.7688C58.7975 29.8148 58.8071 29.864 58.8071 29.9137V30.6821C58.8071 30.7319 58.7975 30.7811 58.7789 30.827C58.7603 30.873 58.7329 30.9147 58.6985 30.9499C58.664 30.985 58.6231 31.0129 58.5781 31.0319C58.5331 31.051 58.4848 31.0607 58.4361 31.0607ZM48.0468 31.0607C47.9981 31.0607 47.9498 31.051 47.9048 31.0319C47.8598 31.0129 47.8188 30.985 47.7844 30.9499C47.7499 30.9147 47.7226 30.873 47.704 30.827C47.6853 30.7811 47.6758 30.7319 47.6758 30.6821V29.9137C47.6758 29.864 47.6853 29.8148 47.704 29.7688C47.7226 29.7229 47.7499 29.6811 47.7844 29.646C47.8188 29.6108 47.8598 29.5829 47.9048 29.5639C47.9498 29.5449 47.9981 29.5351 48.0468 29.5352C48.2519 29.5352 48.4179 29.7045 48.4179 29.9137V30.6821C48.4179 30.7319 48.4083 30.7811 48.3897 30.8271C48.371 30.873 48.3437 30.9148 48.3092 30.9499C48.2748 30.9851 48.2338 31.013 48.1888 31.032C48.1438 31.051 48.0955 31.0607 48.0468 31.0607ZM51.7457 39.3793C51.6969 39.3793 51.6487 39.3695 51.6037 39.3504C51.5587 39.3314 51.5178 39.3035 51.4834 39.2684L49.2571 36.9967C49.1875 36.9257 49.1484 36.8294 49.1484 36.729C49.1484 36.6286 49.1875 36.5323 49.2571 36.4613C49.3267 36.3904 49.421 36.3505 49.5194 36.3505C49.6178 36.3505 49.7122 36.3904 49.7817 36.4613L51.8196 38.5407L53.0762 37.9048C53.1198 37.8825 53.1673 37.8693 53.216 37.8658C53.2646 37.8623 53.3135 37.8686 53.3597 37.8844C53.4059 37.9002 53.4487 37.9251 53.4855 37.9578C53.5222 37.9905 53.5523 38.0303 53.574 38.0748C53.6647 38.2627 53.59 38.4897 53.4067 38.5821L51.9109 39.3393C51.8595 39.3654 51.803 39.379 51.7457 39.3793Z" fill="#4C4622"/>
<path d="M54.7136 39.3794C54.6562 39.3792 54.5997 39.3655 54.5484 39.3394L53.0526 38.5822C52.9654 38.537 52.8993 38.4585 52.8686 38.3637C52.8379 38.269 52.8452 38.1657 52.8887 38.0764C52.9323 37.9871 53.0087 37.9189 53.1013 37.8868C53.1939 37.8547 53.2951 37.8612 53.383 37.905L54.6397 38.5408L56.6775 36.4615C56.712 36.4263 56.7529 36.3985 56.7979 36.3794C56.8429 36.3604 56.8911 36.3506 56.9398 36.3506C56.9885 36.3506 57.0368 36.3604 57.0818 36.3794C57.1268 36.3985 57.1677 36.4263 57.2021 36.4615C57.2366 36.4966 57.2639 36.5384 57.2826 36.5843C57.3012 36.6302 57.3108 36.6794 57.3108 36.7292C57.3108 36.7789 57.3012 36.8281 57.2826 36.874C57.2639 36.9199 57.2366 36.9617 57.2021 36.9968L54.9759 39.2685C54.9063 39.3395 54.812 39.3794 54.7136 39.3794ZM46.539 31.0498C46.4742 31.0496 46.4105 31.0323 46.3543 30.9995C46.2977 30.9663 46.2507 30.9184 46.218 30.8608C46.1853 30.8032 46.1681 30.7378 46.168 30.6712C46.168 26.8598 48.0355 25.1465 48.9421 24.5394L48.5131 24.1342C48.4665 24.0899 48.4318 24.0341 48.4123 23.9722C48.3928 23.9104 48.389 23.8444 48.4015 23.7807C48.4142 23.7168 48.443 23.6574 48.4849 23.6081C48.5268 23.5589 48.5804 23.5216 48.6407 23.4997C48.7233 23.4694 50.6901 22.7617 52.8903 22.7617C54.8673 22.7617 56.3862 23.3289 57.4036 24.4477C58.5111 25.6649 58.9827 27.5137 58.8059 29.9421C58.8002 30.02 58.771 30.0942 58.7224 30.1546C58.6738 30.215 58.608 30.2585 58.5342 30.2793C58.4604 30.2995 58.3822 30.2962 58.3103 30.2697C58.2384 30.2433 58.1762 30.195 58.1319 30.1314L56.6724 28.0113C52.1394 27.822 46.7774 30.9677 46.7252 30.9988C46.6686 31.0323 46.6044 31.0499 46.539 31.0498ZM49.4906 24.0254L49.819 24.3352C49.8643 24.3781 49.8984 24.4319 49.9183 24.4917C49.9381 24.5515 49.9431 24.6153 49.9328 24.6776C49.9222 24.7397 49.8965 24.7982 49.8582 24.8476C49.8199 24.8971 49.77 24.936 49.7132 24.9608C49.606 25.0097 47.1783 26.1418 46.9304 30.0218C48.4965 29.1818 52.9527 27.0269 56.8936 27.2642C56.9494 27.2675 57.0037 27.2837 57.0525 27.3115C57.1014 27.3393 57.1434 27.378 57.1754 27.4247L58.098 28.7646C58.066 27.1081 57.6509 25.8319 56.8594 24.9622C55.9883 24.0046 54.6527 23.5188 52.8903 23.5188C51.5214 23.519 50.2197 23.8206 49.4906 24.0254ZM53.2178 40.1366C53.1691 40.1367 53.1208 40.1269 53.0758 40.1079C53.0308 40.0888 52.9899 40.0609 52.9555 40.0257L52.2134 39.2685C52.1779 39.2336 52.1496 39.1918 52.1302 39.1456C52.1107 39.0994 52.1005 39.0497 52.1001 38.9995C52.0997 38.9492 52.109 38.8993 52.1277 38.8528C52.1464 38.8062 52.1739 38.764 52.2088 38.7284C52.2436 38.6929 52.285 38.6647 52.3306 38.6457C52.3762 38.6267 52.4251 38.6171 52.4744 38.6175C52.5237 38.618 52.5723 38.6284 52.6176 38.6482C52.6629 38.6681 52.7038 38.6969 52.7381 38.7331L53.4802 39.4903C53.5321 39.5433 53.5675 39.6107 53.5818 39.6842C53.5962 39.7577 53.5888 39.8338 53.5608 39.903C53.5327 39.9722 53.4851 40.0313 53.424 40.0729C53.363 40.1145 53.2912 40.1367 53.2178 40.1366Z" fill="#4C4622"/>
<path d="M53.2187 40.1363C53.1454 40.1364 53.0736 40.1142 53.0126 40.0726C52.9515 40.031 52.904 39.9718 52.8759 39.9026C52.8478 39.8334 52.8405 39.7573 52.8548 39.6839C52.8692 39.6104 52.9045 39.5429 52.9565 39.49L53.6985 38.7328C53.7327 38.6966 53.7737 38.6678 53.8189 38.6479C53.8642 38.6281 53.9129 38.6176 53.9622 38.6172C54.0114 38.6168 54.0603 38.6263 54.1059 38.6454C54.1515 38.6644 54.193 38.6925 54.2278 38.7281C54.2626 38.7636 54.2902 38.8059 54.3089 38.8525C54.3275 38.899 54.3369 38.9489 54.3365 38.9991C54.3361 39.0494 54.3258 39.0991 54.3064 39.1453C54.2869 39.1915 54.2586 39.2333 54.2232 39.2682L53.4811 40.0254C53.4467 40.0606 53.4058 40.0885 53.3608 40.1076C53.3158 40.1266 53.2675 40.1364 53.2187 40.1363Z" fill="#4C4622"/>
<path d="M52.4773 43.1654C52.4251 43.1655 52.3734 43.1543 52.3257 43.1326C52.278 43.111 52.2353 43.0793 52.2005 43.0397C52.1656 43 52.1393 42.9533 52.1233 42.9026C52.1073 42.8519 52.102 42.7983 52.1077 42.7453L52.4788 39.3378C52.5012 39.1294 52.6788 38.9769 52.889 39.0029C52.9867 39.0141 53.076 39.0643 53.1374 39.1426C53.1988 39.221 53.2273 39.3209 53.2165 39.4206L52.8455 42.8282C52.8354 42.9207 52.7923 43.0062 52.7244 43.0684C52.6565 43.1306 52.5685 43.1651 52.4773 43.1654Z" fill="#4C4622"/>
<path d="M53.9574 43.1648C53.8661 43.1645 53.7782 43.13 53.7102 43.0678C53.6423 43.0056 53.5992 42.9201 53.5892 42.8276L53.2182 39.4201C53.2074 39.3204 53.2358 39.2204 53.2972 39.1421C53.3586 39.0637 53.448 39.0135 53.5456 39.0023C53.7559 38.9771 53.9334 39.1288 53.9559 39.3372L54.327 42.7447C54.3327 42.7977 54.3274 42.8513 54.3114 42.902C54.2954 42.9528 54.2691 42.9995 54.2342 43.0391C54.1993 43.0788 54.1566 43.1104 54.1089 43.1321C54.0612 43.1537 54.0096 43.1649 53.9574 43.1648ZM50.9896 21.9622C50.9505 21.9622 50.9106 21.956 50.8722 21.9426L46.477 20.4477H33.9217C32.8991 20.4477 32.0664 19.5984 32.0664 18.5547V4.92439C32.0664 3.8806 32.8991 3.03125 33.9217 3.03125H54.7002C55.7235 3.03125 56.5554 3.8806 56.5554 4.92439V18.5546C56.5554 19.5983 55.7235 20.4476 54.7002 20.4476H51.3608V21.5835C51.3609 21.6333 51.3513 21.6825 51.3326 21.7285C51.314 21.7745 51.2866 21.8162 51.2522 21.8514C51.2177 21.8866 51.1768 21.9144 51.1317 21.9335C51.0867 21.9525 51.0384 21.9622 50.9896 21.9622ZM33.9217 3.78849C33.3078 3.78849 32.8085 4.29808 32.8085 4.92439V18.5546C32.8085 19.1809 33.3078 19.6904 33.9217 19.6904H46.5371C46.577 19.6904 46.6168 19.697 46.6545 19.71L50.6186 21.058V20.0691C50.6186 19.8598 50.7845 19.6904 50.9896 19.6904H54.7001C55.3139 19.6904 55.8132 19.1809 55.8132 18.5546V4.92439C55.8132 4.29808 55.3139 3.78849 54.7001 3.78849H33.9217Z" fill="#4C4622"/>
<path d="M50.9903 8.32962H36.8906C36.6856 8.32962 36.5195 8.16026 36.5195 7.95105C36.5195 7.74174 36.6855 7.57238 36.8906 7.57238H50.9903C51.1954 7.57238 51.3614 7.74174 51.3614 7.95105C51.3614 8.00077 51.3518 8.05001 51.3332 8.09596C51.3145 8.1419 51.2872 8.18364 51.2527 8.2188C51.2183 8.25396 51.1774 8.28184 51.1323 8.30085C51.0873 8.31987 51.039 8.32964 50.9903 8.32962ZM50.9903 12.1158H36.8906C36.6856 12.1158 36.5195 11.9465 36.5195 11.7371C36.5195 11.6874 36.5291 11.6382 36.5477 11.5922C36.5664 11.5463 36.5937 11.5045 36.6282 11.4694C36.6626 11.4342 36.7036 11.4063 36.7486 11.3873C36.7936 11.3683 36.8419 11.3585 36.8906 11.3586H50.9903C51.1954 11.3586 51.3614 11.5279 51.3614 11.7371C51.3614 11.9465 51.1954 12.1158 50.9903 12.1158ZM44.3116 15.9019H36.8906C36.6856 15.9019 36.5195 15.7326 36.5195 15.5233C36.5195 15.314 36.6855 15.1447 36.8906 15.1447H44.3116C44.5167 15.1447 44.6826 15.314 44.6826 15.5233C44.6826 15.7326 44.5167 15.9019 44.3116 15.9019ZM48.0219 2.27162H40.6011C40.5524 2.27164 40.5041 2.26187 40.4591 2.24285C40.4141 2.22384 40.3732 2.19595 40.3387 2.16079C40.3042 2.12564 40.2769 2.08389 40.2583 2.03795C40.2396 1.99201 40.2301 1.94277 40.2301 1.89305V0.378572C40.2301 0.32885 40.2396 0.279611 40.2583 0.233669C40.2769 0.187728 40.3042 0.145984 40.3387 0.110826C40.3732 0.0756669 40.4141 0.0477825 40.4591 0.0287663C40.5041 0.00975012 40.5524 -2.48384e-05 40.6011 4.73974e-08H48.0219C48.2271 4.73974e-08 48.393 0.169264 48.393 0.378572V1.89305C48.393 1.94278 48.3835 1.99202 48.3648 2.03797C48.3462 2.08392 48.3188 2.12567 48.2844 2.16083C48.2499 2.19599 48.209 2.22387 48.164 2.24288C48.1189 2.26189 48.0707 2.27166 48.0219 2.27162ZM40.9721 1.51448H47.6509V0.757238H40.9721V1.51448Z" fill="#4C4622"/>
<path d="M40.6028 3.02886C40.5541 3.02888 40.5059 3.01911 40.4608 3.00009C40.4158 2.98108 40.3749 2.95319 40.3404 2.91803C40.306 2.88287 40.2787 2.84113 40.26 2.79519C40.2414 2.74925 40.2318 2.70001 40.2318 2.65029V1.89305C40.2318 1.84333 40.2414 1.79409 40.26 1.74815C40.2787 1.7022 40.306 1.66046 40.3404 1.6253C40.3749 1.59014 40.4158 1.56226 40.4608 1.54324C40.5059 1.52423 40.5541 1.51445 40.6028 1.51448C40.6516 1.51444 40.6998 1.52421 40.7448 1.54322C40.7899 1.56223 40.8308 1.59011 40.8653 1.62527C40.8997 1.66044 40.927 1.70218 40.9457 1.74813C40.9643 1.79408 40.9739 1.84332 40.9738 1.89305V2.65029C40.9739 2.70001 40.9643 2.74926 40.9457 2.7952C40.927 2.84115 40.8997 2.8829 40.8653 2.91806C40.8308 2.95322 40.7899 2.98111 40.7448 3.00012C40.6998 3.01913 40.6516 3.0289 40.6028 3.02886ZM48.0237 3.02886C47.9749 3.02888 47.9267 3.01911 47.8817 3.00009C47.8366 2.98108 47.7957 2.95319 47.7613 2.91803C47.7268 2.88287 47.6995 2.84113 47.6809 2.79519C47.6622 2.74925 47.6526 2.70001 47.6527 2.65029V1.89305C47.6526 1.84333 47.6622 1.79409 47.6809 1.74815C47.6995 1.7022 47.7268 1.66046 47.7613 1.6253C47.7957 1.59014 47.8366 1.56226 47.8817 1.54324C47.9267 1.52423 47.9749 1.51445 48.0237 1.51448C48.2288 1.51448 48.3948 1.68374 48.3948 1.89305V2.65029C48.3948 2.70002 48.3852 2.74926 48.3666 2.79521C48.3479 2.84116 48.3206 2.88291 48.2861 2.91807C48.2517 2.95323 48.2107 2.98111 48.1657 3.00012C48.1207 3.01913 48.0724 3.0289 48.0237 3.02886ZM37.6345 3.40752H35.4082C35.2031 3.40752 35.0371 3.23817 35.0371 3.02886C35.0371 2.97913 35.0466 2.92988 35.0653 2.88393C35.0839 2.83799 35.1113 2.79624 35.1457 2.76108C35.1802 2.72592 35.2211 2.69804 35.2661 2.67903C35.3112 2.66001 35.3594 2.65025 35.4082 2.65029H37.6345C37.8396 2.65029 38.0056 2.81964 38.0056 3.02886C38.0056 3.23817 37.8396 3.40752 37.6345 3.40752ZM53.2183 3.40752H50.992C50.9433 3.40755 50.895 3.39777 50.85 3.37875C50.805 3.35973 50.7641 3.33183 50.7296 3.29667C50.6952 3.2615 50.6678 3.21974 50.6492 3.17379C50.6306 3.12784 50.621 3.07859 50.621 3.02886C50.621 2.97914 50.6306 2.9299 50.6492 2.88396C50.6679 2.83801 50.6952 2.79627 50.7297 2.76111C50.7641 2.72595 50.805 2.69807 50.85 2.67905C50.8951 2.66004 50.9433 2.65026 50.992 2.65029H53.2183C53.2671 2.65026 53.3153 2.66004 53.3603 2.67905C53.4054 2.69807 53.4463 2.72595 53.4807 2.76111C53.5152 2.79627 53.5425 2.83801 53.5611 2.88396C53.5798 2.9299 53.5893 2.97914 53.5893 3.02886C53.5893 3.23817 53.4234 3.40752 53.2183 3.40752ZM42.087 1.13581C42.0383 1.13583 41.99 1.12606 41.945 1.10704C41.9 1.08803 41.8591 1.06014 41.8246 1.02498C41.7902 0.989826 41.7628 0.948082 41.7442 0.902141C41.7256 0.856199 41.716 0.80696 41.716 0.757238V0.378572C41.716 0.169264 41.8819 1.06625e-07 42.087 1.06625e-07C42.2921 1.06625e-07 42.458 0.169264 42.458 0.378572V0.757238C42.458 0.80696 42.4485 0.856199 42.4298 0.902141C42.4112 0.948082 42.3839 0.989826 42.3494 1.02498C42.315 1.06014 42.274 1.08803 42.229 1.10704C42.184 1.12606 42.1357 1.13583 42.087 1.13581ZM43.5712 1.13581C43.3661 1.13581 43.2001 0.966451 43.2001 0.757238V0.378572C43.2001 0.328842 43.2097 0.279595 43.2283 0.233647C43.247 0.187699 43.2743 0.145952 43.3088 0.110792C43.3432 0.0756323 43.3841 0.0477499 43.4292 0.0287393C43.4742 0.00972867 43.5225 -3.72249e-05 43.5712 1.06625e-07C43.6199 -2.47791e-05 43.6682 0.00975018 43.7132 0.0287664C43.7582 0.0477826 43.7991 0.075667 43.8336 0.110826C43.8681 0.145984 43.8954 0.187728 43.914 0.233669C43.9326 0.279611 43.9422 0.32885 43.9422 0.378572V0.757238C43.9422 0.80696 43.9326 0.856199 43.914 0.902141C43.8954 0.948082 43.8681 0.989826 43.8336 1.02498C43.7991 1.06014 43.7582 1.08803 43.7132 1.10704C43.6682 1.12606 43.6199 1.13583 43.5712 1.13581ZM45.0554 1.13581C44.8503 1.13581 44.6843 0.966451 44.6843 0.757238V0.378572C44.6843 0.328842 44.6939 0.279595 44.7125 0.233647C44.7311 0.187699 44.7585 0.145952 44.7929 0.110792C44.8274 0.0756323 44.8683 0.0477499 44.9134 0.0287393C44.9584 0.00972867 45.0067 -3.72249e-05 45.0554 1.06625e-07C45.1041 -2.47791e-05 45.1524 0.00975018 45.1974 0.0287664C45.2424 0.0477826 45.2833 0.075667 45.3178 0.110826C45.3522 0.145984 45.3796 0.187728 45.3982 0.233669C45.4168 0.279611 45.4264 0.32885 45.4264 0.378572V0.757238C45.4264 0.80696 45.4168 0.856199 45.3982 0.902141C45.3796 0.948082 45.3522 0.989826 45.3178 1.02498C45.2833 1.06014 45.2424 1.08803 45.1974 1.10704C45.1524 1.12606 45.1041 1.13583 45.0554 1.13581ZM46.5395 1.13581C46.4908 1.13583 46.4425 1.12606 46.3975 1.10704C46.3525 1.08803 46.3115 1.06014 46.2771 1.02498C46.2426 0.989826 46.2153 0.948082 46.1967 0.902141C46.178 0.856199 46.1685 0.80696 46.1685 0.757238V0.378572C46.1685 0.32885 46.178 0.279611 46.1967 0.233669C46.2153 0.187728 46.2426 0.145984 46.2771 0.110826C46.3115 0.075667 46.3525 0.0477826 46.3975 0.0287664C46.4425 0.00975018 46.4908 -2.47791e-05 46.5395 1.06625e-07C46.7446 1.06625e-07 46.9106 0.169264 46.9106 0.378572V0.757238C46.9106 0.806968 46.901 0.856215 46.8824 0.902163C46.8637 0.948111 46.8364 0.989858 46.8019 1.02502C46.7675 1.06018 46.7266 1.08806 46.6815 1.10707C46.6365 1.12608 46.5882 1.13585 46.5395 1.13581ZM22.7927 20.4453C22.7317 20.4454 22.6717 20.4301 22.6181 20.4006C22.5588 20.3683 22.5091 20.3202 22.4745 20.2614C22.4399 20.2026 22.4217 20.1353 22.4217 20.0668V18.9309H22.0506C21.028 18.9309 20.1953 18.0815 20.1953 17.0378V9.46543C20.1953 8.42173 21.028 7.57238 22.0506 7.57238H30.9556C31.0044 7.57236 31.0526 7.58213 31.0976 7.60116C31.1427 7.62018 31.1836 7.64807 31.218 7.68324C31.2525 7.71841 31.2798 7.76016 31.2985 7.80612C31.3171 7.85207 31.3267 7.90132 31.3266 7.95105C31.3266 8.00077 31.3171 8.05001 31.2984 8.09595C31.2798 8.14189 31.2525 8.18364 31.218 8.21879C31.1836 8.25395 31.1426 8.28184 31.0976 8.30085C31.0526 8.31987 31.0043 8.32964 30.9556 8.32962H22.0506C21.4367 8.32962 20.9374 8.83912 20.9374 9.46543V17.0378C20.9374 17.6641 21.4367 18.1736 22.0506 18.1736H22.7927C22.9977 18.1736 23.1638 18.343 23.1638 18.5523V19.359L24.8132 18.2371C24.8741 18.1957 24.9457 18.1735 25.019 18.1735H30.9557C31.0044 18.1735 31.0527 18.1833 31.0977 18.2023C31.1428 18.2213 31.1837 18.2492 31.2181 18.2844C31.2526 18.3196 31.2799 18.3613 31.2985 18.4073C31.3172 18.4532 31.3267 18.5025 31.3267 18.5522C31.3267 18.6019 31.3172 18.6512 31.2985 18.6971C31.2799 18.743 31.2526 18.7848 31.2181 18.8199C31.1836 18.8551 31.1427 18.883 31.0977 18.902C31.0527 18.921 31.0044 18.9308 30.9557 18.9308H25.1313L22.9985 20.3817C22.9376 20.4233 22.8659 20.4454 22.7927 20.4453Z" fill="#4C4622"/>
<path d="M30.9562 12.1166H24.2773C24.0723 12.1166 23.9063 11.9473 23.9063 11.7379C23.9062 11.6882 23.9158 11.639 23.9344 11.593C23.9531 11.5471 23.9804 11.5053 24.0149 11.4702C24.0494 11.435 24.0903 11.4071 24.1353 11.3881C24.1803 11.3691 24.2286 11.3593 24.2773 11.3594H30.9562C31.0049 11.3594 31.0532 11.3691 31.0982 11.3881C31.1432 11.4072 31.1841 11.435 31.2186 11.4702C31.253 11.5054 31.2804 11.5471 31.299 11.593C31.3176 11.639 31.3272 11.6882 31.3272 11.7379C31.3272 11.9473 31.1612 12.1166 30.9562 12.1166Z" fill="#4C4622"/>
<path d="M30.9562 15.1479H24.2773C24.0723 15.1479 23.9062 14.9786 23.9062 14.7693C23.9062 14.56 24.0722 14.3906 24.2773 14.3906H30.9562C31.1612 14.3906 31.3272 14.56 31.3272 14.7693C31.3272 14.9786 31.1612 15.1479 30.9562 15.1479Z" fill="#4C4622"/>
</svg>
