<svg width="304" height="84" viewBox="0 0 304 84" fill="none" xmlns="http://www.w3.org/2000/svg">
<path d="M18.1774 12.6216L10.4496 30.0849H8.63008L0.902344 12.6216H2.89631L9.57762 27.7891L16.3093 12.6216H18.1792H18.1774Z" fill="white"/>
<path d="M21.1914 12.6216H23.0361V30.0849H21.1914V12.6216Z" fill="white"/>
<path d="M28.8477 12.62H30.6924V28.4856H40.4644V30.0815H28.8477V12.6182V12.62Z" fill="white"/>
<path d="M43.6523 12.62H45.4971V28.4856H55.2691V30.0815H43.6523V12.6182V12.62Z" fill="white"/>
<path d="M71.4007 25.4195H61.679L59.5843 30.0849H57.6641L65.6417 12.6216H67.4613L75.4389 30.0849H73.4953L71.4007 25.4195ZM70.7282 23.9226L66.5407 14.5432L62.3532 23.9226H70.73H70.7282Z" fill="white"/>
<path d="M90.7457 21.3551H92.5149V28.0158C90.8697 29.4876 88.5269 30.2361 86.1087 30.2361C80.7992 30.2361 76.9102 26.4685 76.9102 21.3551C76.9102 16.2417 80.7992 12.4741 86.1338 12.4741C88.7769 12.4741 91.0693 13.3215 92.6156 14.993L91.4684 16.1661C89.9977 14.7195 88.2518 14.1204 86.2075 14.1204C81.8942 14.1204 78.7279 17.1881 78.7279 21.3551C78.7279 25.5221 81.8942 28.5898 86.1824 28.5898C87.8527 28.5898 89.399 28.2156 90.7439 27.2422V21.3551H90.7457Z" fill="white"/>
<path d="M110.191 28.489V30.0849H97.8516V12.6216H109.817V14.2175H99.6963V20.4285H108.72V22.001H99.6963V28.4872H110.191V28.489Z" fill="white"/>
<path d="M119.762 21.3551C119.762 16.2417 123.651 12.4741 128.912 12.4741C131.454 12.4741 133.748 13.3215 135.295 15.0182L134.122 16.1913C132.702 14.7447 130.956 14.1204 128.962 14.1204C124.749 14.1204 121.583 17.2132 121.583 21.3551C121.583 25.4969 124.749 28.5898 128.962 28.5898C130.956 28.5898 132.702 27.9655 134.122 26.4937L135.295 27.6668C133.748 29.3635 131.456 30.2361 128.888 30.2361C123.653 30.2361 119.764 26.4685 119.764 21.3551H119.762Z" fill="white"/>
<path d="M151.273 30.0849L147.283 24.4713C146.835 24.5217 146.386 24.5469 145.888 24.5469H141.2V30.0849H139.355V12.6216H145.888C150.325 12.6216 153.017 14.867 153.017 18.6094C153.017 21.3533 151.571 23.2748 149.029 24.0971L153.292 30.0849H151.273ZM151.172 18.6094C151.172 15.8152 149.327 14.2193 145.837 14.2193H141.2V22.9762H145.837C149.327 22.9762 151.172 21.3551 151.172 18.6112V18.6094Z" fill="white"/>
<path d="M169.847 28.489V30.0849H157.508V12.6216H169.473V14.2175H159.353V20.4285H168.377V22.001H159.353V28.4872H169.847V28.489Z" fill="white"/>
<path d="M186.648 28.489V30.0849H174.309V12.6216H186.274V14.2175H176.153V20.4285H185.177V22.001H176.153V28.4872H186.648V28.489Z" fill="white"/>
<path d="M196.523 21.8752L192.958 25.4917V30.0815H191.113V12.6182H192.958V23.1707L203.205 12.6182H205.325L197.771 20.5258L205.848 30.0797H203.654L196.523 21.8716V21.8752Z" fill="white"/>
<path d="M2.28125 37.2849H14.0868C23.5478 37.2849 29.9397 43.5121 29.9397 52.2114C29.9397 60.9106 23.5478 67.1378 14.0868 67.1378H2.28125V37.2849ZM13.916 65.1748C22.354 65.1748 27.7659 59.8005 27.7659 52.2095C27.7659 44.6186 22.354 39.2443 13.916 39.2443H4.45501V65.173H13.916V65.1748Z" fill="white"/>
<path d="M64.8841 65.1766V67.1378H44.3008V37.2849H64.2458V39.2461H46.4745V51.0167H62.3705V52.9364H46.4745V65.1766H64.8841Z" fill="white"/>
<path d="M103.921 37.2849V67.1378H102.131L81.8027 41.209V67.1378H79.6289V37.2849H81.4611L101.746 63.2137V37.2849H103.92H103.921Z" fill="white"/>
<path d="M126.849 39.2461H116.109V37.2849H139.762V39.2461H129.023V67.136H126.849V39.2461Z" fill="white"/>
<path d="M170.399 58.7372H153.097L149.306 67.1378H146.961L160.683 37.2849H162.857L176.579 67.1378H174.235L170.399 58.7372ZM169.59 56.9037L161.749 39.6743L153.95 56.9037H169.59Z" fill="white"/>
<path d="M188.812 37.2833H190.986V65.1732H208.161V67.1344H188.812V37.2815V37.2833Z" fill="white"/>
<path d="M249.848 55.1756C249.681 55.1756 249.514 55.172 249.345 55.1666C243.782 54.9687 239.648 51.5664 238.131 50.1162C231.78 57.4337 221.776 54.1105 221.672 54.0763L222.17 52.6225C222.574 52.7611 231.848 55.809 237.467 48.4987L238.65 48.4573C238.693 48.5059 243.145 53.416 249.413 53.6319C253.385 53.7668 257.263 52.0144 260.945 48.4177L262.013 48.4141C262.042 48.4429 264.994 51.2425 269.241 52.6153C274.835 54.4236 279.964 53.0148 284.488 48.4285L285.648 48.5077C285.876 48.8082 291.356 55.8684 301.396 52.4714L301.889 53.927C299.812 54.6287 297.903 54.9148 296.171 54.9166C290.224 54.9166 286.376 51.5412 284.992 50.0838C278.975 55.7748 272.85 55.4113 268.714 54.0619C265.21 52.9176 262.587 50.9313 261.497 50.0118C257.802 53.4412 253.888 55.1756 249.846 55.1774L249.848 55.1756Z" fill="white"/>
<path d="M261.778 83.8821C238.669 83.8821 219.867 65.0675 219.867 41.9401C219.867 18.8128 238.669 0 261.778 0C284.888 0 303.691 18.8146 303.691 41.9401C303.691 65.0657 284.89 83.8821 261.778 83.8821ZM261.778 1.53655C239.514 1.53655 221.401 19.662 221.401 41.9419C221.401 64.2218 239.514 82.3473 261.778 82.3473C284.043 82.3473 302.156 64.2218 302.156 41.9419C302.156 19.662 284.043 1.53655 261.778 1.53655Z" fill="white"/>
</svg>
