<svg width="277" height="96" viewBox="0 0 277 96" fill="none" xmlns="http://www.w3.org/2000/svg">
<path d="M30.8811 24.5234L24.6803 38.5067H23.2203L17.0195 24.5234H18.6195L23.9806 36.6684L29.3821 24.5234H30.8825H30.8811Z" fill="#7E8D5E"/>
<path d="M33.3047 24.5234H34.7849V38.5067H33.3047V24.5234Z" fill="#7E8D5E"/>
<path d="M39.4453 24.5234H40.9255V37.2274H48.7667V38.5053H39.4453V24.522V24.5234Z" fill="#7E8D5E"/>
<path d="M51.3242 24.5234H52.8044V37.2274H60.6456V38.5053H51.3242V24.522V24.5234Z" fill="#7E8D5E"/>
<path d="M73.5887 34.771H65.788L64.1072 38.5067H62.5664L68.9677 24.5234H70.4277L76.829 38.5067H75.2695L73.5887 34.771ZM73.0491 33.5724L69.6891 26.0621L66.329 33.5724H73.0506H73.0491Z" fill="#7E8D5E"/>
<path d="M89.1134 31.515H90.533V36.8484C89.2129 38.0269 87.3331 38.6262 85.3926 38.6262C81.1323 38.6262 78.0117 35.6095 78.0117 31.515C78.0117 27.4206 81.1323 24.4038 85.4128 24.4038C87.5336 24.4038 89.3731 25.0824 90.6138 26.4208L89.6933 27.3601C88.5132 26.2018 87.1123 25.722 85.472 25.722C82.0109 25.722 79.4703 28.1784 79.4703 31.515C79.4703 34.8517 82.0109 37.308 85.4518 37.308C86.792 37.308 88.0328 37.0084 89.1119 36.2289V31.515H89.1134Z" fill="#7E8D5E"/>
<path d="M104.714 37.2288V38.5067H94.8125V24.5234H104.414V25.8013H96.2927V30.7746H103.534V32.0337H96.2927V37.2274H104.714V37.2288Z" fill="#7E8D5E"/>
<path d="M112.395 31.515C112.395 27.4206 115.515 24.4038 119.736 24.4038C121.776 24.4038 123.617 25.0824 124.858 26.4409L123.917 27.3803C122.778 26.222 121.377 25.722 119.777 25.722C116.397 25.722 113.856 28.1986 113.856 31.515C113.856 34.8315 116.397 37.308 119.777 37.308C121.377 37.308 122.778 36.8081 123.917 35.6296L124.858 36.5689C123.617 37.9275 121.778 38.6262 119.718 38.6262C115.517 38.6262 112.396 35.6095 112.396 31.515H112.395Z" fill="#7E8D5E"/>
<path d="M137.679 38.5067L134.478 34.0118C134.119 34.0521 133.758 34.0723 133.359 34.0723H129.597V38.5067H128.117V24.5234H133.359C136.919 24.5234 139.079 26.3214 139.079 29.318C139.079 31.5151 137.919 33.0537 135.879 33.7121L139.3 38.5067H137.679ZM137.599 29.318C137.599 27.0807 136.118 25.8028 133.318 25.8028H129.597V32.8146H133.318C136.118 32.8146 137.599 31.5165 137.599 29.3195V29.318Z" fill="#7E8D5E"/>
<path d="M152.585 37.2288V38.5067H142.684V24.5234H152.285V25.8013H144.164V30.7746H151.405V32.0337H144.164V37.2274H152.585V37.2288Z" fill="#7E8D5E"/>
<path d="M166.065 37.2288V38.5067H156.164V24.5234H165.765V25.8013H157.644V30.7746H164.885V32.0337H157.644V37.2274H166.065V37.2288Z" fill="#7E8D5E"/>
<path d="M173.986 31.9343L171.125 34.8301V38.5053H169.645V24.522H171.125V32.9716L179.347 24.522H181.048L174.987 30.8538L181.468 38.5038H179.707L173.986 31.9314V31.9343Z" fill="#7E8D5E"/>
<path d="M18.1289 44.271H27.6017C35.1933 44.271 40.3221 49.2572 40.3221 56.2229C40.3221 63.1886 35.1933 68.1748 27.6017 68.1748H18.1289V44.271ZM27.4647 66.603C34.2353 66.603 38.5779 62.2997 38.5779 56.2215C38.5779 50.1432 34.2353 45.8399 27.4647 45.8399H19.8731V66.6016H27.4647V66.603Z" fill="#7E8D5E"/>
<path d="M68.3599 66.6045V68.1748H51.8438V44.271H67.8477V45.8413H53.588V55.2663H66.343V56.8035H53.588V66.6045H68.3599Z" fill="#7E8D5E"/>
<path d="M99.6838 44.271V68.1748H98.2469L81.9356 47.4131V68.1748H80.1914V44.271H81.6615L97.9382 65.0327V44.271H99.6824H99.6838Z" fill="#7E8D5E"/>
<path d="M118.078 45.8428H109.461V44.2725H128.44V45.8428H119.822V68.1749H118.078V45.8428Z" fill="#7E8D5E"/>
<path d="M153.03 61.4483H139.147L136.104 68.1748H134.223L145.233 44.271H146.978L157.988 68.1748H156.107L153.03 61.4483ZM152.381 59.9802L146.089 46.1842L139.83 59.9802H152.381Z" fill="#7E8D5E"/>
<path d="M167.801 44.271H169.545V66.603H183.326V68.1734H167.801V44.2695V44.271Z" fill="#7E8D5E"/>
<path d="M216.773 58.5967C216.639 58.5967 216.504 58.5938 216.369 58.5895C211.905 58.431 208.588 55.7067 207.371 54.5455C202.275 60.4048 194.248 57.7438 194.164 57.7165L194.564 56.5524C194.888 56.6633 202.33 59.1038 206.838 53.2503L207.788 53.2172C207.822 53.2561 211.394 57.1877 216.424 57.3606C219.611 57.4687 222.722 56.0654 225.677 53.1855L226.534 53.1826C226.557 53.2057 228.926 55.4474 232.334 56.5466C236.822 57.9945 240.938 56.8664 244.568 53.1941L245.499 53.2575C245.682 53.4981 250.079 59.1514 258.135 56.4314L258.53 57.5969C256.864 58.1587 255.332 58.3878 253.943 58.3893C249.17 58.3893 246.083 55.6865 244.972 54.5196C240.145 59.0765 235.229 58.7854 231.911 57.7049C229.099 56.7887 226.994 55.1981 226.12 54.4619C223.155 57.2079 220.015 58.5967 216.771 58.5981L216.773 58.5967Z" fill="#7E8D5E"/>
<path d="M226.348 81.5831C207.805 81.5831 192.719 66.5179 192.719 47.9993C192.719 29.4808 207.805 14.417 226.348 14.417C244.891 14.417 259.979 29.4822 259.979 47.9993C259.979 66.5165 244.893 81.5831 226.348 81.5831ZM226.348 15.6473C208.483 15.6473 193.949 30.1608 193.949 48.0008C193.949 65.8408 208.483 80.3542 226.348 80.3542C244.213 80.3542 258.747 65.8408 258.747 48.0008C258.747 30.1608 244.213 15.6473 226.348 15.6473Z" fill="#7E8D5E"/>
</svg>
